<svg xmlns="http://www.w3.org/2000/svg" viewBox="0 0 6000 600.77"><defs><style>.cls-1{fill:#f90} @media (color-gamut: p3) {.cls-1{fill:color(display-p3 1 0.6 0.2)}}</style></defs><path d="M172.22 193.23v-70.31H211c21.3 0 48.89 9.7 48.89 35.15s-27.56 35.16-48.89 35.16Zm10.71-9.45h27c16.25 0 38.68-5.17 38.68-25.71s-22.43-25.7-38.68-25.7h-27ZM322.6 174h-36.41L-6.92 631.56H-20l324.46-505.24 43.09 66.91h-12.47Zm-30.49-9.2h24.57l-12.22-19.2ZM338 130.1h12.35l29.74 46.24L493.52 0h12.63l-126 195.62ZM437.07 193.23V130h10.33v63.26ZM470.71 193.23V130h34.9c19.16 0 43.85 8.7 43.85 31.63s-24.69 31.63-43.85 31.63Zm10.59-9.33h23.43c14.12 0 33.65-4.41 33.65-22.3s-19.53-22.3-33.65-22.3H481.3ZM645.47 195.87c-13.48 0-27.22-3-34.15-7.81v-12.22c6 5.29 20.67 10.58 34.4 10.58 15.63 0 25.58-5.79 25.58-11.59 0-18-61.74-4.66-61.74-34.27 0-13.86 18.15-19.79 34.78-19.79 12.09 0 24.82 2.27 30.87 6.81v11.34c-8.06-5.67-19.41-8.7-32.13-8.7-6.93 0-21.93 2.15-21.93 10.46 0 18.65 61.49 5.8 61.49 33.27 0 16.05-18.64 21.92-37.17 21.92ZM750.94 174h-36.42l-12.35 19.28h-12.35l43-66.91 43.09 66.91h-12.5Zm-30.5-9.2H745l-12.21-19.2ZM788.48 193.23v-66l63.63 47.88V0h10.33v195.75l-63.63-48.14v45.62ZM884.24 193.23V130h34.9c19.15 0 43.85 8.7 43.85 31.63s-24.7 31.63-43.85 31.63Zm10.58-9.33h23.44c14.11 0 33.64-4.41 33.64-22.3s-19.53-22.3-33.64-22.3h-23.44ZM1023.09 127.58c24.83 0 44.86 15.37 44.86 34.15s-20 34-44.86 34-45-15.25-45-34 20.18-34.15 45-34.15Zm0 58.72c18.65 0 33.77-11 33.77-24.57s-15.12-24.7-33.77-24.7-33.89 11-33.89 24.7 15.12 24.57 33.89 24.57ZM1156.27 130l-52.79 53.93h4983.78v11.85l-5008-2.52 53-53.93h-46.62V130Z" class="cls-1"/></svg>
