<svg xmlns="http://www.w3.org/2000/svg" viewBox="0 0 6000 500"><defs><style>.a{fill:#f90;}</style></defs><path class="a" d="M159.22,92.45V22.14H198c21.3,0,48.89,9.7,48.89,35.16S219.33,92.45,198,92.45ZM169.93,83h27c16.25,0,38.68-5.16,38.68-25.7S213.15,31.59,196.9,31.59h-27Z"/><path class="a" d="M309.6,73.17H273.19L-19.92,530.79H-33L291.46,25.54l43.09,66.91H322.08ZM279.11,64h24.57L291.46,44.82Z"/><path class="a" d="M325,29.32h12.35l29.74,46.25,75.7-117.72h12.56l-88.26,137Z"/><path class="a" d="M424.07,92.45V29.2H434.4V92.45Z"/><path class="a" d="M457.71,92.45V29.2h34.9c19.16,0,43.85,8.69,43.85,31.63s-24.69,31.62-43.85,31.62Zm10.59-9.32h23.43c14.12,0,33.65-4.41,33.65-22.3s-19.53-22.31-33.65-22.31H468.3Z"/><path class="a" d="M632.47,95.1c-13.48,0-27.22-3-34.15-7.81V75.06c6,5.3,20.67,10.59,34.4,10.59,15.63,0,25.58-5.8,25.58-11.59,0-18-61.74-4.66-61.74-34.28,0-13.86,18.15-19.78,34.78-19.78,12.09,0,24.82,2.27,30.87,6.8V38.15c-8.06-5.68-19.41-8.7-32.13-8.7-6.93,0-21.93,2.14-21.93,10.46,0,18.65,61.49,5.8,61.49,33.26C669.64,89.18,651,95.1,632.47,95.1Z"/><path class="a" d="M737.94,73.17H701.52L689.17,92.45H676.82l43-66.91,43.09,66.91H750.41ZM707.44,64H732L719.79,44.82Z"/><path class="a" d="M775.48,92.45v-66l63.63,47.88V-71.43h10.33V95L785.81,46.84V92.45Z"/><path class="a" d="M871.24,92.45V29.2h34.9c19.15,0,43.85,8.69,43.85,31.63s-24.7,31.62-43.85,31.62Zm10.58-9.32h23.44c14.11,0,33.64-4.41,33.64-22.3s-19.53-22.31-33.64-22.31H881.82Z"/><path class="a" d="M1010.09,26.8C1034.92,26.8,1055,42.18,1055,61s-20,34-44.86,34-45-15.24-45-34S985.27,26.8,1010.09,26.8Zm0,58.72c18.65,0,33.77-11,33.77-24.57s-15.12-24.7-33.77-24.7S976.2,47.22,976.2,61,991.32,85.52,1010.09,85.52Z"/><path class="a" d="M1143.27,29.2l-52.79,53.93H6074.26V95l-5008-2.52,53-53.93h-46.62V29.2Z"/></svg>