<svg id="Layer_1" data-name="Layer 1" xmlns="http://www.w3.org/2000/svg" viewBox="0 0 6000 600.77"><defs><style>.cls-1{fill:#f90;}</style></defs><path class="cls-1" d="M172.22,193.23V122.92H211c21.3,0,48.89,9.7,48.89,35.15S232.33,193.23,211,193.23Zm10.71-9.45h27c16.25,0,38.68-5.17,38.68-25.71s-22.43-25.7-38.68-25.7h-27Z"/><path class="cls-1" d="M322.6,174H286.19L-6.92,631.56H-20L304.46,126.32l43.09,66.91H335.08Zm-30.49-9.2h24.57L304.46,145.6Z"/><path class="cls-1" d="M338,130.1h12.35l29.74,46.24L493.52,0h12.63l-126,195.62Z"/><path class="cls-1" d="M437.07,193.23V130H447.4v63.26Z"/><path class="cls-1" d="M470.71,193.23V130h34.9c19.16,0,43.85,8.7,43.85,31.63s-24.69,31.63-43.85,31.63Zm10.59-9.33h23.43c14.12,0,33.65-4.41,33.65-22.3s-19.53-22.3-33.65-22.3H481.3Z"/><path class="cls-1" d="M645.47,195.87c-13.48,0-27.22-3-34.15-7.81V175.84c6,5.29,20.67,10.58,34.4,10.58,15.63,0,25.58-5.79,25.58-11.59,0-18-61.74-4.66-61.74-34.27,0-13.86,18.15-19.79,34.78-19.79,12.09,0,24.82,2.27,30.87,6.81v11.34c-8.06-5.67-19.41-8.7-32.13-8.7-6.93,0-21.93,2.15-21.93,10.46,0,18.65,61.49,5.8,61.49,33.27C682.64,190,664,195.87,645.47,195.87Z"/><path class="cls-1" d="M750.94,174H714.52l-12.35,19.28H689.82l43-66.91,43.09,66.91H763.41Zm-30.5-9.2H745L732.79,145.6Z"/><path class="cls-1" d="M788.48,193.23v-66l63.63,47.88V0h10.33V195.75l-63.63-48.14v45.62Z"/><path class="cls-1" d="M884.24,193.23V130h34.9c19.15,0,43.85,8.7,43.85,31.63s-24.7,31.63-43.85,31.63Zm10.58-9.33h23.44c14.11,0,33.64-4.41,33.64-22.3s-19.53-22.3-33.64-22.3H894.82Z"/><path class="cls-1" d="M1023.09,127.58c24.83,0,44.86,15.37,44.86,34.15s-20,34-44.86,34-45-15.25-45-34S998.27,127.58,1023.09,127.58Zm0,58.72c18.65,0,33.77-11,33.77-24.57s-15.12-24.7-33.77-24.7-33.89,11-33.89,24.7S1004.32,186.3,1023.09,186.3Z"/><path class="cls-1" d="M1156.27,130l-52.79,53.93H6087.26v11.85l-5008-2.52,53-53.93h-46.62V130Z"/></svg>